<svg width="40" height="40" viewBox="0 0 40 40" fill="none" xmlns="http://www.w3.org/2000/svg">
<rect width="40" height="40" rx="8" fill="#2B2D30"/>
<g transform="translate(7, 7) scale(2.6)">
<path d="M1.44354 6.10974H0.271436C0.123381 6.10974 0 6.2348 0 6.3848V9.58474C0 9.73474 0.123381 9.85974 0.271436 9.85974H4.45399C4.68841 9.85974 4.81179 9.5723 4.6514 9.3848L1.62861 6.1848C1.57925 6.1473 1.51757 6.10974 1.44354 6.10974Z" fill="#01D9C1"/>
<path d="M7.91486 0.0749999L3.70765 4.375C3.60895 4.475 3.59661 4.65 3.69532 4.7625L8.37136 9.9125C8.42074 9.975 8.49474 10 8.5688 10H9.72855C9.87662 10 9.99999 9.875 9.99999 9.725V0.275C9.99999 0.125 9.87662 0 9.72855 0H8.09992C8.03824 0 7.96424 0.0249999 7.91486 0.0749999Z" fill="#01D9C1"/>
<path d="M0 0.275V3.6125C0 3.7625 0.12338 3.8875 0.271436 3.8875H0.666247C0.740272 3.8875 0.814304 3.8625 0.863654 3.8L4.10853 0.475C4.28126 0.3 4.15788 0 3.91112 0H0.271436C0.12338 0 0 0.125 0 0.275Z" fill="#01D9C1"/>
</g>
</svg>
